<?xml version="1.0" encoding="utf-8"?>
<!-- Generator: Adobe Illustrator 23.0.1, SVG Export Plug-In . SVG Version: 6.00 Build 0)  -->
<svg xmlns="http://www.w3.org/2000/svg" xmlns:xlink="http://www.w3.org/1999/xlink" x="0px" y="0px" viewBox="0 0 727.6 725.1" style="enable-background:new 0 0 727.6 725.1;" xml:space="preserve">
<style type="text/css">
	.st0{fill:#FFCA40;}
</style>
<g>
	<path class="st0" d="M373.9,725.1c-28,0-54.4-11.4-78.6-34l-0.4-0.3l-0.5,0.1c-8.1,1.4-20.8,3-35.8,3   c-62.4,0-106.3-28.1-123.6-79.1l-0.2-0.5l-0.5-0.2c-17-5.4-59.1-22.1-81.8-61C37.5,527.4,33.9,497,42,462.9l0.1-0.6l-0.5-0.4   c-12.9-10.8-35.2-34.1-40.5-69.2c-5-33.3,6.7-68.2,34.8-103.7l0.3-0.4l-0.1-0.5c-5.3-18.7-11.5-55.5,6-90.7   c13.2-26.7,37.3-46.3,71.5-58.4l0.6-0.2l0-0.7c0.8-15.8,5.5-38.9,23.7-59.4c22.6-25.4,58.8-38.2,107.6-38.2c3.6,0,7.3,0.1,11.1,0.2   l0.4,0l0.3-0.3C270.5,28.3,306,0,352,0c28.8,0,56.2,11.2,81.4,33.3l0.4,0.3l0.5-0.1c8.4-2,21.8-4.4,37.4-4.4   c32.2,0,89.8,11,113.7,84.4l0.2,0.6l0.7,0.1c14.8,1.4,43.1,7.5,65.9,32c24.1,25.9,35,64.8,32.4,115.5l0,0.5l0.3,0.3   c12.5,12.1,41.6,44.9,42.6,88.2c0.7,30.5-12.6,59.7-39.5,86.5l-0.5,0.5l0.2,0.6c6.2,15.9,14.7,47.5,2.9,81   c-10.8,30.6-35.7,54.9-74.1,72.4l-0.4,0.2l-0.1,0.5c-3.1,11.8-10.9,34.6-27.6,55.2c-22.7,28-53.4,42.2-91.3,42.2   c-10.7,0-22-1.2-33.7-3.5l-0.5-0.1l-0.4,0.3C450.3,698.1,416.8,725.1,373.9,725.1z M308.3,667.7c20.6,20.9,42.7,31.5,65.6,31.5   c42.1,0,75.1-35.6,75.4-35.9l5.1-5.6l7.4,1.7c12.5,2.9,24.4,4.4,35.4,4.4c80,0,94.5-80,95.1-83.5l1.2-7l6.6-2.8   c35-14.6,57.3-34.7,66.2-59.8c12.5-35.2-5.5-69.7-5.6-70.1l-4.8-8.9l7.5-6.8c26-23.5,38.9-48.3,38.3-73.7   c-1-41.5-37.1-72.5-38.6-73.8l-5.1-4.2l0.5-6.7c3.4-46.6-5-81.2-25.1-102.7c-21.4-23-50.2-24.2-55.7-24.2c-0.5,0-0.8,0-1,0   l-10.5,0.5l-2.7-10.1c-7.4-28-20.8-48.5-39.7-60.9C509.3,59.8,491.8,55,471.7,55c-20.7,0-36.6,5.1-37.3,5.3l-7.4,2.5l-5.6-5.4   c-21.8-20.9-45.2-31.5-69.4-31.5c-44.8,0-80.1,36.6-80.4,37l-4.1,4.4l-6-0.3c-5.4-0.3-10.8-0.5-15.9-0.5c-41,0-70.6,9.9-88.1,29.4   c-19.8,22.1-17.4,49.8-17.3,51l1.2,10.7l-10.4,3.1c-32.4,9.5-54.5,25.7-65.6,48.3c-17.8,36-2.6,77.4-2.4,77.9l2.7,7.1l-4.9,5.8   C34,331.4,22.6,361.4,26.7,389c5.5,36.5,36.8,57.2,37.2,57.4l8.1,5.2l-2.7,9.3c-9,30.8-7.1,57.4,5.6,79.2   c22.7,38.8,72.6,50.9,73.1,51l7.5,1.7l2.1,7.4c8.5,30.9,33,67.7,100.9,67.7c19.5,0,34.6-3.2,37.4-3.8l7.2-1.8L308.3,667.7z" />
</g>
<g>
	<path class="st0" d="M362.4,594.8c-128.3,0-232.6-104.4-232.6-232.6c0-128.3,104.4-232.6,232.6-232.6   C490.7,129.6,595,234,595,362.2C595,490.5,490.7,594.8,362.4,594.8z M362.4,153.5c-115.1,0-208.8,93.6-208.8,208.8   c0,115.1,93.6,208.8,208.8,208.8c115.1,0,208.8-93.6,208.8-208.8C571.1,247.1,477.5,153.5,362.4,153.5z" />
</g>
<path class="st0" d="M363.5,641.2c-153.8,0-279-125.2-279-279c0-153.9,125.2-279,279-279c153.9,0,279,125.2,279,279  C642.5,516.1,517.4,641.2,363.5,641.2z M363.5,107.9c-140.2,0-254.3,114.1-254.3,254.3c0,140.2,114.1,254.3,254.3,254.3  c140.2,0,254.3-114.1,254.3-254.3C617.8,222,503.7,107.9,363.5,107.9z" />
<path class="st0" d="M583.7,348.8v-21.4H403.5v-24.5h177.1L568,281.5H403.5V137.8h-21.4v113.1h-33.6V137.8h-21.4v143.7h-171v21.4  h171v24.5H143.9v21.4h106.9v39.7H143.9v21.4h183.3v27.5h-171v21.4h171v119.2h21.4v-97.8h33.6v97.8h21.4V458.8h164.9v-21.4H403.5  v-27.5h180.2v-21.4H479.9v-39.7L583.7,348.8L583.7,348.8z M327.1,388.5h-55v-39.7h55L327.1,388.5L327.1,388.5z M382.1,458.8h-33.6  V272.3h33.6V458.8z M458.5,388.5h-55v-39.7h55V388.5z M293.5,241.7L293.5,241.7v-85.6h-21.4v73.4h-48.9v21.4h70.2V241.7z   M437.1,250.9h64.1v-21.4h-42.8v-73.4h-21.4v85.6h0V250.9L437.1,250.9z M437.1,507.7L437.1,507.7l0,58.1h21.4v-58.1H486v-21.4h-48.9  L437.1,507.7L437.1,507.7z M244.7,507.7h27.5v58.1h21.4v-79.5h-48.9V507.7z" />
</svg>
